<?xml version="1.0" encoding="UTF-8" standalone="no"?><!DOCTYPE svg PUBLIC "-//W3C//DTD SVG 1.1//EN" "http://www.w3.org/Graphics/SVG/1.1/DTD/svg11.dtd"><svg width="100%" height="100%" viewBox="0 0 512 512" version="1.1" xmlns="http://www.w3.org/2000/svg" xmlns:xlink="http://www.w3.org/1999/xlink" xml:space="preserve" xmlns:serif="http://www.serif.com/" style="fill-rule:evenodd;clip-rule:evenodd;stroke-linecap:square;stroke-miterlimit:3;"><g><rect x="0" y="0" width="512" height="512" style="fill:url(#_Linear1);"/><g><g><path d="M464.696,371.333c3.477,7.792 5.216,16.488 5.216,26.088c0,9.599 -1.739,18.294 -5.216,26.086l-0,-52.174Z" style="fill:url(#_Linear2);fill-rule:nonzero;"/><path d="M42.088,397.421c-0,-9.6 1.739,-18.296 5.216,-26.088l0,52.174c-3.477,-7.792 -5.216,-16.487 -5.216,-26.086Z" style="fill:url(#_Linear3);fill-rule:nonzero;"/><rect x="47.304" y="371.333" width="417.392" height="52.173" style="fill:url(#_Linear4);fill-rule:nonzero;"/><path d="M454.261,371.333c3.478,7.792 5.216,16.488 5.216,26.088c0,9.599 -1.738,18.294 -5.216,26.086" style="fill:none;fill-rule:nonzero;stroke:#ede2b4;stroke-width:4.55px;"/><path d="M57.739,423.507c-3.478,-7.792 -5.216,-16.487 -5.216,-26.086c-0,-9.6 1.738,-18.296 5.216,-26.088" style="fill:none;fill-rule:nonzero;stroke:#ede2b4;stroke-width:4.55px;"/></g><g><path d="M469.912,381.768c3.479,7.792 5.219,16.488 5.219,26.088c-0,9.598 -1.74,18.293 -5.219,26.085l0,-52.173Z" style="fill:url(#_Linear5);fill-rule:nonzero;"/><path d="M36.869,407.856c0,-9.6 1.74,-18.296 5.219,-26.088l-0,52.173c-3.479,-7.792 -5.219,-16.487 -5.219,-26.085Z" style="fill:url(#_Linear6);fill-rule:nonzero;"/><rect x="42.088" y="381.768" width="427.824" height="52.173" style="fill:url(#_Linear7);fill-rule:nonzero;"/><path d="M459.477,381.768c3.479,7.792 5.219,16.488 5.219,26.088c-0,9.598 -1.74,18.293 -5.219,26.085" style="fill:none;fill-rule:nonzero;stroke:#ede2b4;stroke-width:4.55px;"/><path d="M52.523,433.941c-3.479,-7.792 -5.219,-16.487 -5.219,-26.085c0,-9.6 1.74,-18.296 5.219,-26.088" style="fill:none;fill-rule:nonzero;stroke:#ede2b4;stroke-width:4.55px;"/></g><g><path d="M475.131,392.203c3.477,7.792 5.216,16.488 5.216,26.088c-0,9.598 -1.739,18.293 -5.216,26.085l-0,-52.173Z" style="fill:url(#_Linear8);fill-rule:nonzero;"/><path d="M31.653,418.291c0,-9.6 1.739,-18.296 5.216,-26.088l0,52.173c-3.477,-7.792 -5.216,-16.487 -5.216,-26.085Z" style="fill:url(#_Linear9);fill-rule:nonzero;"/><rect x="36.869" y="392.203" width="438.261" height="52.173" style="fill:url(#_Linear10);fill-rule:nonzero;"/><path d="M464.696,392.203c3.477,7.792 5.216,16.488 5.216,26.088c0,9.598 -1.739,18.293 -5.216,26.085" style="fill:none;fill-rule:nonzero;stroke:#ede2b4;stroke-width:4.55px;"/><path d="M47.304,444.376c-3.477,-7.792 -5.216,-16.487 -5.216,-26.085c-0,-9.6 1.739,-18.296 5.216,-26.088" style="fill:none;fill-rule:nonzero;stroke:#ede2b4;stroke-width:4.55px;"/></g><g><path d="M480.347,402.637c3.479,7.794 5.218,16.49 5.218,26.088c0,9.599 -1.739,18.294 -5.218,26.086l-0,-52.174Z" style="fill:url(#_Linear11);fill-rule:nonzero;"/><path d="M26.435,428.725c-0,-9.598 1.739,-18.294 5.218,-26.088l0,52.174c-3.479,-7.792 -5.218,-16.487 -5.218,-26.086Z" style="fill:url(#_Linear12);fill-rule:nonzero;"/><rect x="31.653" y="402.637" width="448.693" height="52.173" style="fill:url(#_Linear13);fill-rule:nonzero;"/><path d="M469.912,402.637c3.479,7.794 5.219,16.49 5.219,26.088c-0,9.599 -1.74,18.294 -5.219,26.086" style="fill:none;fill-rule:nonzero;stroke:#ede2b4;stroke-width:4.55px;"/><path d="M42.088,454.811c-3.479,-7.792 -5.219,-16.487 -5.219,-26.086c0,-9.598 1.74,-18.294 5.219,-26.088" style="fill:none;fill-rule:nonzero;stroke:#ede2b4;stroke-width:4.55px;"/></g><g><path d="M485.565,413.072c3.478,7.794 5.216,16.49 5.216,26.088c0,9.598 -1.738,18.293 -5.216,26.085l0,-52.173Z" style="fill:url(#_Linear14);fill-rule:nonzero;"/><path d="M21.219,439.16c-0,-9.598 1.738,-18.294 5.216,-26.088l-0,52.173c-3.478,-7.792 -5.216,-16.487 -5.216,-26.085Z" style="fill:url(#_Linear15);fill-rule:nonzero;"/><rect x="26.435" y="413.072" width="459.131" height="52.173" style="fill:url(#_Linear16);fill-rule:nonzero;"/><path d="M475.131,413.072c3.477,7.794 5.216,16.49 5.216,26.088c-0,9.598 -1.739,18.293 -5.216,26.085" style="fill:none;fill-rule:nonzero;stroke:#ede2b4;stroke-width:4.55px;"/><path d="M36.869,465.245c-3.477,-7.792 -5.216,-16.487 -5.216,-26.085c0,-9.598 1.739,-18.294 5.216,-26.088" style="fill:none;fill-rule:nonzero;stroke:#ede2b4;stroke-width:4.55px;"/></g><g><path d="M490.781,423.507c3.479,7.793 5.219,16.489 5.219,26.088c0,9.598 -1.74,18.293 -5.219,26.085l0,-52.173Z" style="fill:url(#_Linear17);fill-rule:nonzero;"/><path d="M16,449.595c0,-9.599 1.74,-18.295 5.219,-26.088l-0,52.173c-3.479,-7.792 -5.219,-16.487 -5.219,-26.085Z" style="fill:url(#_Linear18);fill-rule:nonzero;"/><rect x="21.219" y="423.507" width="469.563" height="52.173" style="fill:url(#_Linear19);fill-rule:nonzero;"/><path d="M480.347,423.507c3.479,7.793 5.218,16.489 5.218,26.088c0,9.598 -1.739,18.293 -5.218,26.085" style="fill:none;fill-rule:nonzero;stroke:#ede2b4;stroke-width:4.55px;"/><path d="M31.653,475.68c-3.479,-7.792 -5.218,-16.487 -5.218,-26.085c-0,-9.599 1.739,-18.295 5.218,-26.088" style="fill:none;fill-rule:nonzero;stroke:#ede2b4;stroke-width:4.55px;"/></g></g><g><g><path d="M156,425c-53.019,0 -96,-10.744 -96,-24c0,-13.256 42.981,-24 96,-24c53.019,0 96,10.744 96,24c0,13.256 -42.981,24 -96,24Z" style="fill:url(#_Linear20);fill-rule:nonzero;"/></g><g><g><g><path d="M156.48,143.72l38.4,-14.88l35.04,20.16l-24,149.76l-25.44,9.12l-28.32,-14.88l4.32,-149.28Z" style="fill:url(#_Linear21);fill-rule:nonzero;"/></g></g></g><g><g><path d="M162.184,62.011c-19.589,2.974 -31.251,8.53 -34.984,16.669c-5.6,12.211 0.32,32.131 0,43.901c-0.32,11.771 -6.88,21.219 -3.36,31.976c3.52,10.758 55.84,15.262 60.48,2.616c4.64,-12.645 -1.6,-9.885 1.44,-23.112c3.04,-13.226 7.04,-34.885 3.36,-49.274c-2.453,-9.595 -11.432,-17.187 -26.936,-22.776Z" style="fill:url(#_Linear22);fill-rule:nonzero;"/><path d="M162.184,62.011c-6.21,1.454 -11.233,2.834 -15.069,4.141c-5.752,1.96 -17.728,13.56 -22.054,24.605c-4.322,11.046 0.104,17.307 0,34.414c-0.067,11.406 -4.634,30.869 -13.701,58.389c5.008,-10.644 9.575,-21.684 13.701,-33.12c6.192,-17.155 10.888,-35.539 15.952,-45.733c3.378,-6.795 10.435,-21.027 21.171,-42.696Z" style="fill:url(#_Linear23);fill-rule:nonzero;"/><path d="M162.184,62.011c7.097,11.153 11.391,19.559 12.883,25.216c2.24,8.488 -8.35,24.016 -5.147,41.613c2.133,11.732 4.59,20.236 7.371,25.512c-2.596,-8.183 -3.337,-15.887 -2.224,-23.112c1.672,-10.837 20.981,-38.12 7.589,-54.315c-8.93,-10.798 -15.754,-15.769 -20.472,-14.914Z" style="fill:url(#_Linear24);fill-rule:nonzero;"/><path d="M162.184,62.011c-5.668,2.09 -10.269,3.782 -13.805,5.074c-5.307,1.936 -13.422,8.304 -18.694,14.947c-5.272,6.643 5.03,46.808 3.755,72.32c-0.85,17.008 -2.61,32.824 -5.28,47.448c5.892,-35.534 12.631,-60.814 20.219,-75.84c7.585,-15.026 12.187,-36.342 13.805,-63.949Z" style="fill:url(#_Linear25);fill-rule:nonzero;"/><path d="M141.6,103.88c1.387,-15.467 8.248,-29.423 20.584,-41.869c-6.016,1.651 -11.004,3.106 -14.963,4.365c-5.938,1.888 -15.061,6.304 -19.061,20.224c-4,13.92 3.728,41.12 -3.36,65.28c-7.088,24.16 -9.92,32.96 -18.72,45.6c-8.8,12.64 -17.28,21.6 -17.28,21.6c-0,0 23.971,-23.592 34.08,-37.92c10.109,-14.328 16.64,-54.08 18.72,-77.28Z" style="fill:url(#_Linear26);fill-rule:nonzero;"/><path d="M162.184,62.011c5.052,11.747 8.008,20.42 8.867,26.018c1.29,8.4 -6.702,29.462 -5.051,45.63c1.1,10.777 2.844,18.777 5.232,24c-0.18,-10.303 -0.18,-18.242 0,-23.819c0.269,-8.365 18.203,-38.315 6.123,-56.224c-8.054,-11.94 -13.111,-17.141 -15.171,-15.605Z" style="fill:url(#_Linear27);fill-rule:nonzero;"/><path d="M162.184,62.011c0.037,10.206 2.136,19.522 6.296,27.949c6.24,12.64 16.403,17.44 14.643,36.96c-1.174,13.013 0.985,36.007 6.477,68.981c-0.533,-8.867 -1.813,-22.101 -3.84,-39.701c-3.04,-26.4 14.24,-63.2 -1.008,-78.285c-10.165,-10.059 -17.688,-15.36 -22.568,-15.904Z" style="fill:url(#_Linear28);fill-rule:nonzero;"/><path d="M162.184,62.011c-6.21,1.454 -11.233,2.834 -15.069,4.141c-5.752,1.96 -16.083,9.923 -22.054,19.968c-5.968,10.045 6.184,75.104 0,93.824c-4.121,12.48 -10.448,22.805 -18.981,30.976c7.678,-6.176 14.558,-14.496 20.64,-24.96c9.123,-15.696 2.52,-62.683 17.04,-91.632c9.682,-19.301 15.823,-30.074 18.424,-32.317Z" style="fill:url(#_Linear29);fill-rule:nonzero;"/><path d="M162.184,62.011c7.097,11.153 11.391,19.559 12.883,25.216c2.24,8.488 -5.795,27.437 -2.267,43.533c2.352,10.731 5.228,20.16 8.629,28.288c-2.67,-11.63 -4.266,-20.662 -4.789,-27.096c-0.784,-9.651 14.56,-39.592 6.016,-53.032c-5.698,-8.96 -12.522,-14.596 -20.472,-16.909Z" style="fill:url(#_Linear30);fill-rule:nonzero;"/><path d="M162.184,62.011c-3.532,6.046 -6.554,15.042 -9.064,26.989c-3.765,17.92 -6.08,18.56 -6.24,39.36c-0.16,20.8 -8.16,26.88 -17.195,38.88c-6.023,8 -14.129,17.554 -24.32,28.661c5.44,-4.665 13.547,-12.458 24.32,-23.381c16.16,-16.384 20.555,-15.52 28.715,-36.856c5.44,-14.222 6.701,-38.773 3.784,-73.653Z" style="fill:url(#_Linear31);fill-rule:nonzero;"/><path d="M162.184,62.011c-6.855,-0.887 -13.396,-0.211 -19.624,2.029c-9.341,3.36 -17.76,8.16 -21.6,26.88c-3.84,18.72 7.52,26.08 1.92,49.44c-5.6,23.36 -8.8,18.24 -19.68,41.76c-10.88,23.52 -8.16,46.08 -8.16,46.08c-0,0 -0.8,-29.12 13.248,-48c14.048,-18.88 24.992,-25.92 26.592,-48.96c1.067,-15.36 10.168,-38.436 27.304,-69.229Z" style="fill:url(#_Linear32);fill-rule:nonzero;"/><path d="M162.184,62.011c6.343,11.722 9.882,20.395 10.616,26.018c1.101,8.438 -6.403,18.614 -4.8,35.051c1.068,10.958 2.668,20.892 4.8,29.8c-0.926,-4.389 -1.449,-10.736 -1.568,-19.04c-0.179,-12.456 13.408,-40.68 6.123,-53.96c-4.855,-8.853 -9.912,-14.81 -15.171,-17.869Z" style="fill:url(#_Linear33);fill-rule:nonzero;"/><path d="M162.184,62.011c9.518,7.646 15.933,16.642 19.245,26.989c4.971,15.52 0.011,26.4 -1.909,48.48c-1.92,22.08 24.48,60 24.48,60c0,0 -21.16,-32.32 -16.979,-56.16c4.179,-23.84 10.739,-48.64 -1.261,-64.32c-8,-10.453 -15.859,-15.45 -23.576,-14.989Z" style="fill:url(#_Linear34);fill-rule:nonzero;"/><path d="M162.184,62.011c5.408,10.062 8.853,17.924 10.336,23.586c2.221,8.494 -6.259,28.035 -4.197,43.331c1.372,10.196 3.512,18.127 6.418,23.795c-0.75,-10.521 -1.103,-18.638 -1.058,-24.35c0.066,-8.568 15.597,-32.813 6.424,-48.973c-6.116,-10.773 -12.09,-16.57 -17.923,-17.389Z" style="fill:url(#_Linear35);fill-rule:nonzero;"/><path d="M162.184,62.011c0.197,9.93 0.696,16.847 1.496,20.749c1.2,5.853 5.797,29.168 10.8,45.899c3.335,11.155 6.615,20.496 9.84,28.021c-2.597,-11.093 -3.561,-20.434 -2.891,-28.021c1.006,-11.382 8.846,-32.718 -0.346,-47.891c-6.128,-10.116 -12.428,-16.368 -18.899,-18.757Z" style="fill:url(#_Linear36);fill-rule:nonzero;"/></g></g><g><path d="M186.403,233.757c-0,-13.872 -2.763,-13.885 -14.304,-14.413c-11.539,-0.531 -12.67,9.267 -12.771,14.243c-0.099,4.978 1.448,55.234 1.448,62.072c0,6.834 -1.576,45.034 -1.576,47.706c0,2.675 2.029,36.963 3.336,42.107c1.309,5.144 9.669,8.189 14.52,8.083c4.851,-0.104 -3.968,-4.222 -4.957,-9.619c-0.987,-5.397 5.981,-54.296 5.981,-58.296c-0,-4 8.323,-78.011 8.323,-91.883Z" style="fill:url(#_Linear37);fill-rule:nonzero;"/><path d="M163.509,226.307c1.568,8.216 0.328,50.994 -1.549,62.96c-1.875,11.968 -11.496,97.144 -10.069,105.122c1.426,7.979 0.45,17.832 -4.747,11.883c-5.2,-5.949 -5.384,-10.949 -5.384,-14.229c0,-3.28 -3.749,-42.79 -3.891,-48.339c-0.141,-5.547 0.568,-10.859 0.47,-15.981c-0.099,-5.123 -2.222,-55.84 -3.139,-61.603c-0.915,-5.763 0.48,-27.256 0.48,-36.272c0,-9.013 6.837,-13.683 13.392,-13.683c7.981,0 12.869,1.928 14.437,10.142Z" style="fill:url(#_Linear38);fill-rule:nonzero;"/><path d="M174.491,153.253c-1.133,-1.184 -1.216,-3.561 -0.251,-7.133c5.886,2.377 10.046,4.755 12.48,7.133c3.651,3.568 6.56,17.187 6.72,34.147c0.107,11.307 -2.133,24.907 -6.72,40.8l-4.8,-12.48c1.493,-13.227 1.013,-24.427 -1.44,-33.6c-3.68,-13.76 -4.291,-27.091 -5.989,-28.867Z" style="fill:#fff2d2;fill-rule:nonzero;"/><path d="M148.8,144.2c-4.119,1.641 -7.159,2.761 -9.12,3.36c-4.405,1.349 -8.549,2.915 -10.56,7.248c-2.011,4.333 -4.259,21.013 -5.28,33.072c-1.019,12.061 -3.04,16.8 1.92,21.12c3.307,2.88 8.107,5.6 14.4,8.16l6.24,-7.68c-7.36,-6.08 -11.04,-8.64 -11.04,-7.68c-0,1.44 2.341,-11.28 2.4,-18.24c0.061,-6.96 0.971,-23.189 0.915,-24.48c-0.036,-0.86 3.339,-5.82 10.125,-14.88Z" style="fill:#fff2d2;fill-rule:nonzero;"/><path d="M166.349,131.76c0,0 1.032,8.624 1.171,9.84c0.139,1.216 1.2,1.64 6.72,4.52c5.52,2.88 7.2,17.76 7.2,17.76c0.7,6.7 -6.42,10.22 -21.363,10.56c-14.94,0.34 -22.699,-3.66 -23.277,-12c0,0 2.789,-15.059 8.16,-16.32c5.371,-1.259 5.459,-4.056 5.733,-5.741c0.275,-1.688 0.987,-8.619 0.987,-8.619l14.669,0Z" style="fill:#fff2d2;fill-rule:nonzero;"/><g><clipPath id="_clip39"><path d="M166.349,131.76c0,0 1.032,8.624 1.171,9.84c0.139,1.216 1.2,1.64 6.72,4.52c5.52,2.88 7.2,17.76 7.2,17.76c0.7,6.7 -6.42,10.22 -21.363,10.56c-14.94,0.34 -22.699,-3.66 -23.277,-12c0,0 2.789,-15.059 8.16,-16.32c5.371,-1.259 5.459,-4.056 5.733,-5.741c0.275,-1.688 0.987,-8.619 0.987,-8.619l14.669,0Z"/></clipPath><g clip-path="url(#_clip39)"><g><path d="M167.52,134.6l1.44,4.68c-0,-0 -4.68,4.419 -6.72,4.44c-1.36,0.014 -5.52,-2.226 -12.48,-6.72c1.28,-4.16 1.92,-6.24 1.92,-6.24l15.84,3.84Z" style="fill-opacity:0.2;fill-rule:nonzero;"/></g></g></g><path d="M164.16,139.28c2.091,-0.117 9.469,-7.339 11.541,-9.997c2.075,-2.659 4.339,-17.067 4.299,-25.95c-0.04,-8.882 -5.219,-22.138 -21.6,-22.013c-16.381,0.125 -24.744,9.635 -25.152,22.397c-0.408,12.763 8.109,22.648 9.312,24.304c1.203,1.659 19.509,11.376 21.6,11.259Z" style="fill:#fff2d2;fill-rule:nonzero;"/></g><g><g><path d="M179.04,390.44c-4.08,-1.68 -0.381,-4.749 -4.973,-6.808c-4.592,-2.061 3.533,-25.112 0.938,-21.512c-2.597,3.6 -12.738,3.349 -14.557,1.44c-1.819,-1.909 0.757,12.208 0.648,15.544c-0.107,3.336 -0.776,4.616 -0.648,9.008c0.128,4.389 0.224,5.448 2.088,6.168c1.864,0.72 4.616,-1.92 5.64,0c1.024,1.92 3.272,3.931 6.829,4.365c3.555,0.435 9.315,1.395 10.87,-0.285c1.554,-1.683 -2.755,-6.24 -6.835,-7.92Z" style="fill:#18191a;fill-rule:nonzero;"/><path d="M158.4,403.653c-5.04,-3.829 -3.315,-4.333 -5.485,-5.968c-2.168,-1.632 3.805,-30.765 1.637,-27.405c-2.168,3.36 -14.288,2.64 -15.832,0c-1.544,-2.64 1.12,15.84 1.336,20.723c0.213,4.885 -0.104,6.869 -0,9.032c0.104,2.165 0.592,6.776 1.277,7.85c0.688,1.075 2.224,-1.733 3.867,0c1.643,1.734 4.392,5.115 7.715,7.035c3.325,1.92 10.058,1.768 12.57,1.491c2.515,-0.278 -2.045,-8.931 -7.085,-12.758Z" style="fill:#18191a;fill-rule:nonzero;"/></g></g><g><g><path d="M181.496,207.037c0,0 1.053,12.003 3.707,15.398c2.653,3.394 9.208,56.781 9.21,57.424c0.003,0.642 -3.757,1.413 -3.757,1.413l-0.24,1.083l-9.021,1.141l-0.347,1.512l-11.312,-0l-0.325,1.904l-11.899,-2.288l-0.315,1.456l-12.034,-2.2l-0.176,1.128l-11.046,-3.389l-0.674,1.344c-0,-0 -7.174,-2.334 -7.043,-2.747c-0.096,-7.416 3.136,-26.376 5.352,-36.749c2.219,-10.374 0.784,-5.547 4.571,-16.899c3.789,-11.349 7.005,-21.168 7.005,-21.168c0,0 6.781,-2.421 19.387,-2.531c12.605,-0.106 18.957,4.168 18.957,4.168Z" style="fill:url(#_Linear40);fill-rule:nonzero;"/><path d="M178.56,155.24c-0.64,-3.92 -1.864,-7.128 -3.672,-9.624c6.613,2.736 11.124,5.282 13.533,7.637c3.616,3.534 6.139,18.307 5.979,33.187c-0.16,14.88 -3.2,30.56 -5.979,38.4c-2.778,7.84 -6.821,-4 -6.021,-12.48c0.8,-8.48 -1.888,-26.531 -3.36,-38.197c-1.472,-11.664 0.48,-13.043 -0.48,-18.923Z" style="fill:url(#_Linear41);fill-rule:nonzero;"/><path d="M180.96,228.04l4.32,-5.6c-1.458,-4.48 -2.507,-8.32 -3.147,-11.52c-0.96,-4.8 -0.69,-5.12 -1.173,-12.96c-0.483,-7.84 2.4,-15.84 3.325,-20.885c0.928,-5.046 1.63,-16.195 -2.152,-22.795c-2.522,-4.4 -4.993,-7.28 -7.413,-8.64l2.4,5.28l-9.341,6.797c0.96,14.509 1.513,25.363 1.661,32.563c0.148,7.2 1.108,16.96 2.88,29.28l8.64,8.48Z" style="fill:url(#_Linear42);fill-rule:nonzero;"/><path d="M174.72,145.64c5.333,13.867 7.253,24.107 5.76,30.72c-2.24,9.92 -2.72,22.88 -0.96,31.2c1.173,5.547 2.933,10.507 5.28,14.88" style="fill:none;fill-rule:nonzero;stroke:#eeefea;stroke-width:4px;stroke-linecap:round;stroke-miterlimit:4;"/><path d="M177.12,151.4l-9.341,6.317c1.107,12.989 1.501,22.883 1.181,29.683c-0.32,6.8 0.8,17.2 3.36,31.2l8.64,9.44l3.84,-5.6" style="fill:none;fill-rule:nonzero;stroke:#eeefea;stroke-width:4px;stroke-linecap:round;stroke-miterlimit:4;"/><path d="M137.421,147.08c-3.53,2.011 -2.306,9.901 -2.061,13.44c0.245,3.541 3.651,16.32 4.104,28.8c0.456,12.48 1.416,9.12 1.656,16.8c0.16,5.12 -1.76,11.722 -5.76,19.805l26.88,3.075l10.56,-10.4c-0.839,-8 -1.479,-14.24 -1.92,-18.72c-0.661,-6.72 1.784,-22.72 1.44,-26.4c-0.229,-2.453 -1.743,-7.708 -4.541,-15.763l-15.139,-6.797l-3.224,-8.565c-5.643,1.809 -9.641,3.385 -11.995,4.725Z" style="fill:url(#_Linear43);fill-rule:nonzero;"/><path d="M135.84,225.925l26.4,3.075l10.56,-10.4c-0.839,-7.04 -1.479,-12.8 -1.92,-17.28c-0.661,-6.72 1.44,-24.16 1.44,-26.88c-0,-1.813 -1.514,-7.388 -4.541,-16.723l-15.139,-6.797" style="fill:none;fill-rule:nonzero;stroke:#eeefea;stroke-width:4px;stroke-linecap:round;stroke-miterlimit:4;"/><path d="M149.416,142.76c5.349,16.96 8.184,27.68 8.504,32.16c0.48,6.72 -0.435,17.272 -1.92,26.88c-0.99,6.405 -0.99,15.152 0,26.24" style="fill:none;fill-rule:nonzero;stroke:#eeefea;stroke-width:4px;stroke-linecap:round;stroke-miterlimit:4;"/><path d="M137.16,147.195c-5.291,2.49 -8.438,5.188 -9.443,8.093c-1.504,4.357 -3.397,21.712 -4.837,35.952c-1.44,14.24 -2.08,13.92 2.88,18.24c4.96,4.32 11.04,7.84 14.4,7.68c2.24,-0.107 4.96,-2.667 8.16,-7.68c-8.08,-6.4 -12.12,-9.12 -12.12,-8.16c0,1.44 2.635,-12.96 2.475,-19.68c-0.16,-6.72 1.245,-15.565 0.48,-23.472c-0.511,-5.271 -1.175,-8.929 -1.995,-10.973Z" style="fill:url(#_Linear44);fill-rule:nonzero;"/></g></g><g><g><path d="M150.736,209.117l3.32,3.982l-14.304,11.922l-3.32,-3.981l14.304,-11.923Z" style="fill:url(#_Linear45);fill-rule:nonzero;"/><path d="M149.557,205.707l7.598,8.658l-0.87,3.539l-10.24,-11.669l3.512,-0.528Z" style="fill:url(#_Linear46);fill-rule:nonzero;"/><path d="M215.392,157.763l6.656,-0.614l-2.208,6.019l-65.251,50.299l-3.856,-4.624l64.659,-51.08Z" style="fill:url(#_Linear47);fill-rule:nonzero;"/></g><path d="M144.48,212.84c-0.94,1.161 -2.06,2.441 -3.36,3.84c3.451,2.96 6.331,3.12 8.64,0.48c2.309,-2.64 1.509,-5.36 -2.4,-8.16c-0.98,1.401 -1.94,2.681 -2.88,3.84Z" style="fill:#fff2d4;fill-rule:nonzero;"/></g><g><g><path d="M157.92,95.72c-2.453,8.427 -7.253,17.707 -14.4,27.84c1.687,-12.667 2.647,-23.387 2.88,-32.16c0.233,-8.773 5.494,-18.57 15.784,-29.389c-0.389,14.046 -1.811,25.282 -4.264,33.709Z" style="fill:url(#_Linear48);fill-rule:nonzero;"/><path d="M162.184,62.011c-18.416,5.513 -29.757,16.109 -34.024,31.789c-4.267,15.68 -1.996,35.84 6.813,60.48c-1.872,-12.967 -2.377,-23.273 -1.514,-30.917c0.862,-7.645 10.437,-28.095 28.725,-61.352Z" style="fill:url(#_Linear49);fill-rule:nonzero;"/><path d="M162.184,62.011c-11.056,2.206 -18.397,5.282 -22.024,9.229c-5.44,5.92 -9.44,9.44 -12,19.2c-2.56,9.76 -0.16,18.72 1.92,28.32c1.387,6.4 5.387,19.901 12,40.504c-4.615,-32.336 -3.822,-52.077 2.379,-59.224c6.201,-7.147 12.109,-19.823 17.725,-38.029Z" style="fill:url(#_Linear50);fill-rule:nonzero;"/><path d="M162.184,62.011c11.033,11.175 17.932,21.131 20.696,29.869c2.764,8.738 2.764,27.618 0,56.64c6.827,-30.827 7.416,-52.107 1.768,-63.84c-5.648,-11.733 -13.136,-19.29 -22.464,-22.669Z" style="fill:url(#_Linear51);fill-rule:nonzero;"/><path d="M162.184,62.011c12.411,7.753 20.109,16.749 23.096,26.989c2.987,10.24 1.227,27 -5.28,50.28c9.92,-20.507 12.48,-37.747 7.68,-51.72c-4.8,-13.973 -13.299,-22.49 -25.496,-25.549Z" style="fill:url(#_Linear52);fill-rule:nonzero;"/><path d="M184.32,95.72c0.457,10.972 -1.411,20.572 -5.603,28.8c2.367,-12.21 2.367,-22.242 0,-30.096c-2.366,-7.854 -7.877,-18.659 -16.533,-32.413c14.3,11.5 21.679,22.737 22.136,33.709Z" style="fill:url(#_Linear53);fill-rule:nonzero;"/><path d="M145.259,99.061c-1.751,7.876 0.139,25.226 5.672,52.051c-16.132,-23.808 -22.762,-42.752 -19.891,-56.832c2.871,-14.08 13.252,-24.836 31.144,-32.269c-9.532,16.826 -15.174,29.177 -16.925,37.05Z" style="fill:url(#_Linear54);fill-rule:nonzero;"/><path d="M177.6,83.72c2.05,7.557 1.307,17.477 -2.229,29.76c1.486,-11.413 0.629,-20.053 -2.571,-25.92c-3.2,-5.867 -6.739,-14.383 -10.616,-25.549c8.228,6.915 13.366,14.152 15.416,21.709Z" style="fill:url(#_Linear55);fill-rule:nonzero;"/><path d="M152.64,90.131c-1.035,5.495 -1.035,16.958 -0,34.389c-10.347,-13.98 -14.507,-26.46 -12.48,-37.44c2.027,-10.98 9.368,-19.336 22.024,-25.069c-5.328,13.249 -8.509,22.623 -9.544,28.12Z" style="fill:url(#_Linear56);fill-rule:nonzero;"/><path d="M162.184,62.011c5.264,4.553 8.163,11.469 8.696,20.749c0.533,9.28 -0.779,19.52 -3.936,30.72c0.128,-8.752 -0.48,-14.832 -1.824,-18.24c-2.016,-5.112 -1.704,-5.92 -4.8,-12.48c-2.064,-4.373 -1.443,-11.29 1.864,-20.749Z" style="fill:url(#_Linear57);fill-rule:nonzero;"/><path d="M162.184,62.011c2.917,7.966 4.056,14.882 3.416,20.749c-0.96,8.8 -3.68,8.96 -4.8,17.28c-0.747,5.547 -0.747,10.027 0,13.44c-5.013,-15.573 -7.253,-25.813 -6.72,-30.72c0.533,-4.907 3.235,-11.823 8.104,-20.749Z" style="fill:url(#_Linear58);fill-rule:nonzero;"/></g></g></g><g><g><path d="M356,425c-53.019,0 -96,-10.744 -96,-24c0,-13.256 42.981,-24 96,-24c53.019,0 96,10.744 96,24c0,13.256 -42.981,24 -96,24Z" style="fill:url(#_Linear59);fill-rule:nonzero;"/></g><g><g><path d="M362.184,62.011c-19.589,2.974 -31.251,8.53 -34.984,16.669c-5.6,12.211 0.32,32.131 -0,43.901c-0.32,11.771 -6.88,21.219 -3.36,31.976c3.52,10.758 55.84,15.262 60.48,2.616c4.64,-12.645 -1.6,-9.885 1.44,-23.112c3.04,-13.226 7.04,-34.885 3.36,-49.274c-2.453,-9.595 -11.432,-17.187 -26.936,-22.776Z" style="fill:url(#_Linear60);fill-rule:nonzero;"/><path d="M362.184,62.011c-6.21,1.454 -11.233,2.834 -15.069,4.141c-5.752,1.96 -17.728,13.56 -22.054,24.605c-4.322,11.046 0.104,17.307 0,34.414c-0.067,11.406 -4.634,30.869 -13.701,58.389c5.008,-10.644 9.575,-21.684 13.701,-33.12c6.192,-17.155 10.888,-35.539 15.952,-45.733c3.378,-6.795 10.435,-21.027 21.171,-42.696Z" style="fill:url(#_Linear61);fill-rule:nonzero;"/><path d="M362.184,62.011c7.097,11.153 11.391,19.559 12.883,25.216c2.24,8.488 -8.35,24.016 -5.147,41.613c2.133,11.732 4.59,20.236 7.371,25.512c-2.596,-8.183 -3.337,-15.887 -2.224,-23.112c1.672,-10.837 20.981,-38.12 7.589,-54.315c-8.93,-10.798 -15.754,-15.769 -20.472,-14.914Z" style="fill:url(#_Linear62);fill-rule:nonzero;"/><path d="M362.184,62.011c-5.668,2.09 -10.269,3.782 -13.805,5.074c-5.307,1.936 -13.422,8.304 -18.694,14.947c-5.272,6.643 5.03,46.808 3.755,72.32c-0.85,17.008 -2.61,32.824 -5.28,47.448c5.892,-35.534 12.631,-60.814 20.219,-75.84c7.585,-15.026 12.187,-36.342 13.805,-63.949Z" style="fill:url(#_Linear63);fill-rule:nonzero;"/><path d="M341.6,103.88c1.387,-15.467 8.248,-29.423 20.584,-41.869c-6.016,1.651 -11.004,3.106 -14.963,4.365c-5.938,1.888 -15.061,6.304 -19.061,20.224c-4,13.92 3.728,41.12 -3.36,65.28c-7.088,24.16 -9.92,32.96 -18.72,45.6c-8.8,12.64 -17.28,21.6 -17.28,21.6c-0,0 23.971,-23.592 34.08,-37.92c10.109,-14.328 16.64,-54.08 18.72,-77.28Z" style="fill:url(#_Linear64);fill-rule:nonzero;"/><path d="M362.184,62.011c5.052,11.747 8.008,20.42 8.867,26.018c1.29,8.4 -6.702,29.462 -5.051,45.63c1.1,10.777 2.844,18.777 5.232,24c-0.18,-10.303 -0.18,-18.242 -0,-23.819c0.269,-8.365 18.203,-38.315 6.123,-56.224c-8.054,-11.94 -13.111,-17.141 -15.171,-15.605Z" style="fill:url(#_Linear65);fill-rule:nonzero;"/><path d="M362.184,62.011c0.037,10.206 2.136,19.522 6.296,27.949c6.24,12.64 16.403,17.44 14.643,36.96c-1.174,13.013 0.985,36.007 6.477,68.981c-0.533,-8.867 -1.813,-22.101 -3.84,-39.701c-3.04,-26.4 14.24,-63.2 -1.008,-78.285c-10.165,-10.059 -17.688,-15.36 -22.568,-15.904Z" style="fill:url(#_Linear66);fill-rule:nonzero;"/><path d="M362.184,62.011c-6.21,1.454 -11.233,2.834 -15.069,4.141c-5.752,1.96 -16.083,9.923 -22.054,19.968c-5.968,10.045 6.184,75.104 0,93.824c-4.121,12.48 -10.448,22.805 -18.981,30.976c7.678,-6.176 14.558,-14.496 20.64,-24.96c9.123,-15.696 2.52,-62.683 17.04,-91.632c9.682,-19.301 15.823,-30.074 18.424,-32.317Z" style="fill:url(#_Linear67);fill-rule:nonzero;"/><path d="M362.184,62.011c7.097,11.153 11.391,19.559 12.883,25.216c2.24,8.488 -5.795,27.437 -2.267,43.533c2.352,10.731 5.228,20.16 8.629,28.288c-2.67,-11.63 -4.266,-20.662 -4.789,-27.096c-0.784,-9.651 14.56,-39.592 6.016,-53.032c-5.698,-8.96 -12.522,-14.596 -20.472,-16.909Z" style="fill:url(#_Linear68);fill-rule:nonzero;"/><path d="M362.184,62.011c-3.532,6.046 -6.554,15.042 -9.064,26.989c-3.765,17.92 -6.08,18.56 -6.24,39.36c-0.16,20.8 -8.16,26.88 -17.195,38.88c-6.023,8 -14.129,17.554 -24.32,28.661c5.44,-4.665 13.547,-12.458 24.32,-23.381c16.16,-16.384 20.555,-15.52 28.715,-36.856c5.44,-14.222 6.701,-38.773 3.784,-73.653Z" style="fill:url(#_Linear69);fill-rule:nonzero;"/><path d="M362.184,62.011c-6.855,-0.887 -13.396,-0.211 -19.624,2.029c-9.341,3.36 -17.76,8.16 -21.6,26.88c-3.84,18.72 7.52,26.08 1.92,49.44c-5.6,23.36 -8.8,18.24 -19.68,41.76c-10.88,23.52 -8.16,46.08 -8.16,46.08c0,0 -0.8,-29.12 13.248,-48c14.048,-18.88 24.992,-25.92 26.592,-48.96c1.067,-15.36 10.168,-38.436 27.304,-69.229Z" style="fill:url(#_Linear70);fill-rule:nonzero;"/><path d="M362.184,62.011c6.343,11.722 9.882,20.395 10.616,26.018c1.101,8.438 -6.403,18.614 -4.8,35.051c1.068,10.958 2.668,20.892 4.8,29.8c-0.926,-4.389 -1.449,-10.736 -1.568,-19.04c-0.179,-12.456 13.408,-40.68 6.123,-53.96c-4.855,-8.853 -9.912,-14.81 -15.171,-17.869Z" style="fill:url(#_Linear71);fill-rule:nonzero;"/><path d="M362.184,62.011c9.518,7.646 15.933,16.642 19.245,26.989c4.971,15.52 0.011,26.4 -1.909,48.48c-1.92,22.08 24.48,60 24.48,60c-0,0 -21.16,-32.32 -16.979,-56.16c4.179,-23.84 10.739,-48.64 -1.261,-64.32c-8,-10.453 -15.859,-15.45 -23.576,-14.989Z" style="fill:url(#_Linear72);fill-rule:nonzero;"/><path d="M362.184,62.011c5.408,10.062 8.853,17.924 10.336,23.586c2.221,8.494 -6.259,28.035 -4.197,43.331c1.372,10.196 3.512,18.127 6.418,23.795c-0.75,-10.521 -1.103,-18.638 -1.058,-24.35c0.066,-8.568 15.597,-32.813 6.424,-48.973c-6.116,-10.773 -12.09,-16.57 -17.923,-17.389Z" style="fill:url(#_Linear73);fill-rule:nonzero;"/><path d="M362.184,62.011c0.197,9.93 0.696,16.847 1.496,20.749c1.2,5.853 5.797,29.168 10.8,45.899c3.335,11.155 6.615,20.496 9.84,28.021c-2.597,-11.093 -3.561,-20.434 -2.891,-28.021c1.006,-11.382 8.846,-32.718 -0.346,-47.891c-6.128,-10.116 -12.428,-16.368 -18.899,-18.757Z" style="fill:url(#_Linear74);fill-rule:nonzero;"/></g></g><g><path d="M386.403,233.757c-0,-13.872 -2.763,-13.885 -14.304,-14.413c-11.539,-0.531 -12.67,9.267 -12.771,14.243c-0.099,4.978 1.448,55.234 1.448,62.072c-0,6.834 -1.576,45.034 -1.576,47.706c-0,2.675 2.029,36.963 3.336,42.107c1.309,5.144 9.669,8.189 14.52,8.083c4.851,-0.104 -3.968,-4.222 -4.957,-9.619c-0.987,-5.397 5.981,-54.296 5.981,-58.296c0,-4 8.323,-78.011 8.323,-91.883Z" style="fill:url(#_Linear75);fill-rule:nonzero;"/><path d="M363.509,226.307c1.568,8.216 0.328,50.994 -1.549,62.96c-1.875,11.968 -11.496,97.144 -10.069,105.122c1.426,7.979 0.45,17.832 -4.747,11.883c-5.2,-5.949 -5.384,-10.949 -5.384,-14.229c0,-3.28 -3.749,-42.79 -3.891,-48.339c-0.141,-5.547 0.568,-10.859 0.47,-15.981c-0.099,-5.123 -2.222,-55.84 -3.139,-61.603c-0.915,-5.763 0.48,-27.256 0.48,-36.272c-0,-9.013 6.837,-13.683 13.392,-13.683c7.981,0 12.869,1.928 14.437,10.142Z" style="fill:url(#_Linear76);fill-rule:nonzero;"/><path d="M374.491,153.253c-1.133,-1.184 -1.216,-3.561 -0.251,-7.133c5.886,2.377 10.046,4.755 12.48,7.133c3.651,3.568 6.56,17.187 6.72,34.147c0.107,11.307 -2.133,24.907 -6.72,40.8l-4.8,-12.48c1.493,-13.227 1.013,-24.427 -1.44,-33.6c-3.68,-13.76 -4.291,-27.091 -5.989,-28.867Z" style="fill:#fff2d2;fill-rule:nonzero;"/><path d="M348.8,144.2c-4.119,1.641 -7.159,2.761 -9.12,3.36c-4.405,1.349 -8.549,2.915 -10.56,7.248c-2.011,4.333 -4.259,21.013 -5.28,33.072c-1.019,12.061 -3.04,16.8 1.92,21.12c3.307,2.88 8.107,5.6 14.4,8.16l6.24,-7.68c-7.36,-6.08 -11.04,-8.64 -11.04,-7.68c0,1.44 2.341,-11.28 2.4,-18.24c0.061,-6.96 0.971,-23.189 0.915,-24.48c-0.036,-0.86 3.339,-5.82 10.125,-14.88Z" style="fill:#fff2d2;fill-rule:nonzero;"/><path d="M366.349,131.76c0,0 1.032,8.624 1.171,9.84c0.139,1.216 1.2,1.64 6.72,4.52c5.52,2.88 7.2,17.76 7.2,17.76c0.7,6.7 -6.42,10.22 -21.363,10.56c-14.94,0.34 -22.699,-3.66 -23.277,-12c-0,0 2.789,-15.059 8.16,-16.32c5.371,-1.259 5.459,-4.056 5.733,-5.741c0.275,-1.688 0.987,-8.619 0.987,-8.619l14.669,0Z" style="fill:#fff2d2;fill-rule:nonzero;"/><g><clipPath id="_clip77"><path d="M366.349,131.76c0,0 1.032,8.624 1.171,9.84c0.139,1.216 1.2,1.64 6.72,4.52c5.52,2.88 7.2,17.76 7.2,17.76c0.7,6.7 -6.42,10.22 -21.363,10.56c-14.94,0.34 -22.699,-3.66 -23.277,-12c-0,0 2.789,-15.059 8.16,-16.32c5.371,-1.259 5.459,-4.056 5.733,-5.741c0.275,-1.688 0.987,-8.619 0.987,-8.619l14.669,0Z"/></clipPath><g clip-path="url(#_clip77)"><g><path d="M367.52,134.6l1.44,4.68c0,-0 -4.68,4.419 -6.72,4.44c-1.36,0.014 -5.52,-2.226 -12.48,-6.72c1.28,-4.16 1.92,-6.24 1.92,-6.24l15.84,3.84Z" style="fill-opacity:0.2;fill-rule:nonzero;"/></g></g></g><path d="M364.16,139.28c2.091,-0.117 9.469,-7.339 11.541,-9.997c2.075,-2.659 4.339,-17.067 4.299,-25.95c-0.04,-8.882 -5.219,-22.138 -21.6,-22.013c-16.381,0.125 -24.744,9.635 -25.152,22.397c-0.408,12.763 8.109,22.648 9.312,24.304c1.203,1.659 19.509,11.376 21.6,11.259Z" style="fill:#fff2d2;fill-rule:nonzero;"/></g><g><g><path d="M379.04,390.44c-4.08,-1.68 -0.381,-4.749 -4.973,-6.808c-4.592,-2.061 3.533,-25.112 0.938,-21.512c-2.597,3.6 -12.738,3.349 -14.557,1.44c-1.819,-1.909 0.757,12.208 0.648,15.544c-0.107,3.336 -0.776,4.616 -0.648,9.008c0.128,4.389 0.224,5.448 2.088,6.168c1.864,0.72 4.616,-1.92 5.64,0c1.024,1.92 3.272,3.931 6.829,4.365c3.555,0.435 9.315,1.395 10.87,-0.285c1.554,-1.683 -2.755,-6.24 -6.835,-7.92Z" style="fill:#18191a;fill-rule:nonzero;"/><path d="M358.4,403.653c-5.04,-3.829 -3.315,-4.333 -5.485,-5.968c-2.168,-1.632 3.805,-30.765 1.637,-27.405c-2.168,3.36 -14.288,2.64 -15.832,0c-1.544,-2.64 1.12,15.84 1.336,20.723c0.213,4.885 -0.104,6.869 -0,9.032c0.104,2.165 0.592,6.776 1.277,7.85c0.688,1.075 2.224,-1.733 3.867,0c1.643,1.734 4.392,5.115 7.715,7.035c3.325,1.92 10.058,1.768 12.57,1.491c2.515,-0.278 -2.045,-8.931 -7.085,-12.758Z" style="fill:#18191a;fill-rule:nonzero;"/></g></g><g><g><path d="M393.48,182.6c-0.507,20 -2.193,34.08 -5.059,42.24c-4.298,12.24 -6.821,-4 -6.021,-12.48c0.533,-5.653 0.533,-14.613 0,-26.88l11.08,-2.88Z" style="fill:url(#_Linear78);fill-rule:nonzero;"/><path d="M381.976,207.037c0,0 -0.691,5.552 3.227,15.398c3.917,9.845 18.797,31.205 24.077,47.525c5.28,16.32 18.237,89.84 18.24,90.24c0.003,0.643 -14.869,4.16 -19.68,5.195c-4.811,1.032 -9.288,3.304 -13.864,3.613c-4.576,0.309 -11.683,0.253 -15.925,0.48c-4.243,0.227 -10,5.155 -14.614,5.592c-4.613,0.437 -18.922,-1.384 -23.25,-1.768c-4.328,-0.381 -22.619,4.219 -28.347,3.688c-5.728,-0.531 -27.008,-7.579 -26.88,-7.992c-0.053,-4.181 11.04,-63.528 17.28,-79.368c6.24,-15.84 12.96,-33.12 23.52,-47.04c10.56,-13.92 17.872,-34.32 17.872,-34.32c-0,0 6.301,-2.421 18.907,-2.531c12.605,-0.106 19.437,1.288 19.437,1.288Z" style="fill:url(#_Linear79);fill-rule:nonzero;"/><path d="M384.8,220.04c-1.138,-2.88 -2.027,-5.92 -2.667,-9.12c-0.96,-4.8 -1.653,-9.28 -1.653,-13.92c0,-4.64 4.08,-9.84 4.795,-15.032c0.717,-5.189 -1.742,-8.499 -0.03,-11.133c1.143,-1.757 4.035,-2.449 8.675,-2.078l-1.4,-5.178c-1.586,-0.359 -4.799,-0.259 -9.64,0.301c-4.839,0.56 -8.913,2.666 -12.221,6.317c-0.96,6.189 -1.367,12.883 -1.219,20.083c0.148,7.2 0.628,22.24 1.44,45.12l13.92,-15.36Z" style="fill:url(#_Linear80);fill-rule:nonzero;"/><path d="M348.8,163.4c-6.359,-0.599 -13.987,-0.588 -22.883,0.035l-1.117,5.802c8.8,-0.531 13.76,0.243 14.88,2.323c1.68,3.12 1.669,8.64 2.664,13.92c0.997,5.28 3.517,10.141 1.176,20.16c-1.559,6.681 -3.319,12.003 -5.28,15.965l33.12,13.635c-0.853,-17.493 -1.333,-28.32 -1.44,-32.48c-0.16,-6.24 3.68,-18.56 3.36,-26.4c-0.213,-5.227 -1.087,-7.441 -2.621,-6.643c-8.212,-3.61 -15.498,-5.716 -21.859,-6.317Z" style="fill:url(#_Linear81);fill-rule:nonzero;"/><path d="M324.32,180.2c-1.6,17.28 -1.92,26.4 -0.96,27.36c1.44,1.44 13.44,9.76 16.8,9.6c2.24,-0.107 4.96,-2.667 8.16,-7.68c-8.08,-6.4 -12.12,-9.12 -12.12,-8.16c-0,0.96 0.52,-4.96 1.56,-17.76l-13.44,-3.36Z" style="fill:url(#_Linear82);fill-rule:nonzero;"/></g></g><g><path d="M344.48,212.84c-0.94,1.161 -2.06,2.441 -3.36,3.84c3.451,2.96 6.331,3.12 8.64,0.48c2.309,-2.64 1.509,-5.36 -2.4,-8.16c-0.98,1.401 -1.94,2.681 -2.88,3.84Z" style="fill:#fff2d4;fill-rule:nonzero;"/></g><g><g><path d="M357.92,95.72c-2.453,8.427 -7.253,17.707 -14.4,27.84c1.687,-12.667 2.647,-23.387 2.88,-32.16c0.233,-8.773 5.494,-18.57 15.784,-29.389c-0.389,14.046 -1.811,25.282 -4.264,33.709Z" style="fill:url(#_Linear83);fill-rule:nonzero;"/><path d="M362.184,62.011c-18.416,5.513 -29.757,16.109 -34.024,31.789c-4.267,15.68 -1.996,35.84 6.813,60.48c-1.872,-12.967 -2.377,-23.273 -1.514,-30.917c0.862,-7.645 10.437,-28.095 28.725,-61.352Z" style="fill:url(#_Linear84);fill-rule:nonzero;"/><path d="M362.184,62.011c-11.056,2.206 -18.397,5.282 -22.024,9.229c-5.44,5.92 -9.44,9.44 -12,19.2c-2.56,9.76 -0.16,18.72 1.92,28.32c1.387,6.4 5.387,19.901 12,40.504c-4.615,-32.336 -3.822,-52.077 2.379,-59.224c6.201,-7.147 12.109,-19.823 17.725,-38.029Z" style="fill:url(#_Linear85);fill-rule:nonzero;"/><path d="M362.184,62.011c11.033,11.175 17.932,21.131 20.696,29.869c2.764,8.738 2.764,27.618 -0,56.64c6.827,-30.827 7.416,-52.107 1.768,-63.84c-5.648,-11.733 -13.136,-19.29 -22.464,-22.669Z" style="fill:url(#_Linear86);fill-rule:nonzero;"/><path d="M362.184,62.011c12.411,7.753 20.109,16.749 23.096,26.989c2.987,10.24 1.227,27 -5.28,50.28c9.92,-20.507 12.48,-37.747 7.68,-51.72c-4.8,-13.973 -13.299,-22.49 -25.496,-25.549Z" style="fill:url(#_Linear87);fill-rule:nonzero;"/><path d="M384.32,95.72c0.457,10.972 -1.411,20.572 -5.603,28.8c2.367,-12.21 2.367,-22.242 0,-30.096c-2.366,-7.854 -7.877,-18.659 -16.533,-32.413c14.3,11.5 21.679,22.737 22.136,33.709Z" style="fill:url(#_Linear88);fill-rule:nonzero;"/><path d="M345.259,99.061c-1.751,7.876 0.139,25.226 5.672,52.051c-16.132,-23.808 -22.762,-42.752 -19.891,-56.832c2.871,-14.08 13.252,-24.836 31.144,-32.269c-9.532,16.826 -15.174,29.177 -16.925,37.05Z" style="fill:url(#_Linear89);fill-rule:nonzero;"/><path d="M377.6,83.72c2.05,7.557 1.307,17.477 -2.229,29.76c1.486,-11.413 0.629,-20.053 -2.571,-25.92c-3.2,-5.867 -6.739,-14.383 -10.616,-25.549c8.228,6.915 13.366,14.152 15.416,21.709Z" style="fill:url(#_Linear90);fill-rule:nonzero;"/><path d="M352.64,90.131c-1.035,5.495 -1.035,16.958 0,34.389c-10.347,-13.98 -14.507,-26.46 -12.48,-37.44c2.027,-10.98 9.368,-19.336 22.024,-25.069c-5.328,13.249 -8.509,22.623 -9.544,28.12Z" style="fill:url(#_Linear91);fill-rule:nonzero;"/><path d="M362.184,62.011c5.264,4.553 8.163,11.469 8.696,20.749c0.533,9.28 -0.779,19.52 -3.936,30.72c0.128,-8.752 -0.48,-14.832 -1.824,-18.24c-2.016,-5.112 -1.704,-5.92 -4.8,-12.48c-2.064,-4.373 -1.443,-11.29 1.864,-20.749Z" style="fill:url(#_Linear92);fill-rule:nonzero;"/><path d="M362.184,62.011c2.917,7.966 4.056,14.882 3.416,20.749c-0.96,8.8 -3.68,8.96 -4.8,17.28c-0.747,5.547 -0.747,10.027 0,13.44c-5.013,-15.573 -7.253,-25.813 -6.72,-30.72c0.533,-4.907 3.235,-11.823 8.104,-20.749Z" style="fill:url(#_Linear93);fill-rule:nonzero;"/></g></g></g></g><defs><linearGradient id="_Linear1" x1="0" y1="0" x2="1" y2="0" gradientUnits="userSpaceOnUse" gradientTransform="matrix(3.72411e-13,512,-512,3.72411e-13,256,0)"><stop offset="0" style="stop-color:#b2ebf2;stop-opacity:1"/><stop offset="1" style="stop-color:#80deea;stop-opacity:1"/></linearGradient><linearGradient id="_Linear2" x1="0" y1="0" x2="1" y2="0" gradientUnits="userSpaceOnUse" gradientTransform="matrix(3.1947e-15,52.1733,-52.1733,3.1947e-15,467.305,371.333)"><stop offset="0" style="stop-color:#743418;stop-opacity:1"/><stop offset="0.02" style="stop-color:#743418;stop-opacity:1"/><stop offset="1" style="stop-color:#33170b;stop-opacity:1"/></linearGradient><linearGradient id="_Linear3" x1="0" y1="0" x2="1" y2="0" gradientUnits="userSpaceOnUse" gradientTransform="matrix(3.1947e-15,52.1733,-52.1733,3.1947e-15,44.6973,371.333)"><stop offset="0" style="stop-color:#743418;stop-opacity:1"/><stop offset="0.02" style="stop-color:#743418;stop-opacity:1"/><stop offset="1" style="stop-color:#33170b;stop-opacity:1"/></linearGradient><linearGradient id="_Linear4" x1="0" y1="0" x2="1" y2="0" gradientUnits="userSpaceOnUse" gradientTransform="matrix(2.69645e-13,52.1733,-52.1733,2.69645e-13,256,371.333)"><stop offset="0" style="stop-color:#743418;stop-opacity:1"/><stop offset="0.02" style="stop-color:#743418;stop-opacity:1"/><stop offset="1" style="stop-color:#33170b;stop-opacity:1"/></linearGradient><linearGradient id="_Linear5" x1="0" y1="0" x2="1" y2="0" gradientUnits="userSpaceOnUse" gradientTransform="matrix(3.1947e-15,52.1733,-52.1733,3.1947e-15,472.521,381.768)"><stop offset="0" style="stop-color:#743418;stop-opacity:1"/><stop offset="0.02" style="stop-color:#743418;stop-opacity:1"/><stop offset="1" style="stop-color:#33170b;stop-opacity:1"/></linearGradient><linearGradient id="_Linear6" x1="0" y1="0" x2="1" y2="0" gradientUnits="userSpaceOnUse" gradientTransform="matrix(3.1947e-15,52.1733,-52.1733,3.1947e-15,39.4787,381.768)"><stop offset="0" style="stop-color:#743418;stop-opacity:1"/><stop offset="0.02" style="stop-color:#743418;stop-opacity:1"/><stop offset="1" style="stop-color:#33170b;stop-opacity:1"/></linearGradient><linearGradient id="_Linear7" x1="0" y1="0" x2="1" y2="0" gradientUnits="userSpaceOnUse" gradientTransform="matrix(3.044e-13,52.1733,-52.1733,3.044e-13,256.001,381.768)"><stop offset="0" style="stop-color:#743418;stop-opacity:1"/><stop offset="0.02" style="stop-color:#743418;stop-opacity:1"/><stop offset="1" style="stop-color:#33170b;stop-opacity:1"/></linearGradient><linearGradient id="_Linear8" x1="0" y1="0" x2="1" y2="0" gradientUnits="userSpaceOnUse" gradientTransform="matrix(3.1947e-15,52.1733,-52.1733,3.1947e-15,477.74,392.203)"><stop offset="0" style="stop-color:#743418;stop-opacity:1"/><stop offset="0.02" style="stop-color:#743418;stop-opacity:1"/><stop offset="1" style="stop-color:#33170b;stop-opacity:1"/></linearGradient><linearGradient id="_Linear9" x1="0" y1="0" x2="1" y2="0" gradientUnits="userSpaceOnUse" gradientTransform="matrix(3.1947e-15,52.1733,-52.1733,3.1947e-15,34.2627,392.203)"><stop offset="0" style="stop-color:#743418;stop-opacity:1"/><stop offset="0.02" style="stop-color:#743418;stop-opacity:1"/><stop offset="1" style="stop-color:#33170b;stop-opacity:1"/></linearGradient><linearGradient id="_Linear10" x1="0" y1="0" x2="1" y2="0" gradientUnits="userSpaceOnUse" gradientTransform="matrix(3.044e-13,52.1733,-52.1733,3.044e-13,256,392.203)"><stop offset="0" style="stop-color:#743418;stop-opacity:1"/><stop offset="0.02" style="stop-color:#743418;stop-opacity:1"/><stop offset="1" style="stop-color:#33170b;stop-opacity:1"/></linearGradient><linearGradient id="_Linear11" x1="0" y1="0" x2="1" y2="0" gradientUnits="userSpaceOnUse" gradientTransform="matrix(3.1947e-15,52.1733,-52.1733,3.1947e-15,482.956,402.637)"><stop offset="0" style="stop-color:#743418;stop-opacity:1"/><stop offset="0.02" style="stop-color:#743418;stop-opacity:1"/><stop offset="1" style="stop-color:#33170b;stop-opacity:1"/></linearGradient><linearGradient id="_Linear12" x1="0" y1="0" x2="1" y2="0" gradientUnits="userSpaceOnUse" gradientTransform="matrix(3.1947e-15,52.1733,-52.1733,3.1947e-15,29.044,402.637)"><stop offset="0" style="stop-color:#743418;stop-opacity:1"/><stop offset="0.02" style="stop-color:#743418;stop-opacity:1"/><stop offset="1" style="stop-color:#33170b;stop-opacity:1"/></linearGradient><linearGradient id="_Linear13" x1="0" y1="0" x2="1" y2="0" gradientUnits="userSpaceOnUse" gradientTransform="matrix(3.044e-13,52.1733,-52.1733,3.044e-13,256.001,402.637)"><stop offset="0" style="stop-color:#743418;stop-opacity:1"/><stop offset="0.02" style="stop-color:#743418;stop-opacity:1"/><stop offset="1" style="stop-color:#33170b;stop-opacity:1"/></linearGradient><linearGradient id="_Linear14" x1="0" y1="0" x2="1" y2="0" gradientUnits="userSpaceOnUse" gradientTransform="matrix(3.1947e-15,52.1733,-52.1733,3.1947e-15,488.175,413.072)"><stop offset="0" style="stop-color:#743418;stop-opacity:1"/><stop offset="0.02" style="stop-color:#743418;stop-opacity:1"/><stop offset="1" style="stop-color:#33170b;stop-opacity:1"/></linearGradient><linearGradient id="_Linear15" x1="0" y1="0" x2="1" y2="0" gradientUnits="userSpaceOnUse" gradientTransform="matrix(3.1947e-15,52.1733,-52.1733,3.1947e-15,23.828,413.072)"><stop offset="0" style="stop-color:#743418;stop-opacity:1"/><stop offset="0.02" style="stop-color:#743418;stop-opacity:1"/><stop offset="1" style="stop-color:#33170b;stop-opacity:1"/></linearGradient><linearGradient id="_Linear16" x1="0" y1="0" x2="1" y2="0" gradientUnits="userSpaceOnUse" gradientTransform="matrix(3.044e-13,52.1733,-52.1733,3.044e-13,256,413.072)"><stop offset="0" style="stop-color:#743418;stop-opacity:1"/><stop offset="0.02" style="stop-color:#743418;stop-opacity:1"/><stop offset="1" style="stop-color:#33170b;stop-opacity:1"/></linearGradient><linearGradient id="_Linear17" x1="0" y1="0" x2="1" y2="0" gradientUnits="userSpaceOnUse" gradientTransform="matrix(3.1947e-15,52.1733,-52.1733,3.1947e-15,493.391,423.507)"><stop offset="0" style="stop-color:#743418;stop-opacity:1"/><stop offset="0.02" style="stop-color:#743418;stop-opacity:1"/><stop offset="1" style="stop-color:#33170b;stop-opacity:1"/></linearGradient><linearGradient id="_Linear18" x1="0" y1="0" x2="1" y2="0" gradientUnits="userSpaceOnUse" gradientTransform="matrix(3.1947e-15,52.1733,-52.1733,3.1947e-15,18.6093,423.507)"><stop offset="0" style="stop-color:#743418;stop-opacity:1"/><stop offset="0.02" style="stop-color:#743418;stop-opacity:1"/><stop offset="1" style="stop-color:#33170b;stop-opacity:1"/></linearGradient><linearGradient id="_Linear19" x1="0" y1="0" x2="1" y2="0" gradientUnits="userSpaceOnUse" gradientTransform="matrix(3.044e-13,52.1733,-52.1733,3.044e-13,256.001,423.507)"><stop offset="0" style="stop-color:#743418;stop-opacity:1"/><stop offset="0.02" style="stop-color:#743418;stop-opacity:1"/><stop offset="1" style="stop-color:#33170b;stop-opacity:1"/></linearGradient><linearGradient id="_Linear20" x1="0" y1="0" x2="1" y2="0" gradientUnits="userSpaceOnUse" gradientTransform="matrix(-3.96934e-14,48,-48,-3.96934e-14,156,377)"><stop offset="0" style="stop-color:#616161;stop-opacity:1"/><stop offset="1" style="stop-color:#757575;stop-opacity:1"/></linearGradient><linearGradient id="_Linear21" x1="0" y1="0" x2="1" y2="0" gradientUnits="userSpaceOnUse" gradientTransform="matrix(-9.06123,179.124,-179.124,-9.06123,191.04,128.84)"><stop offset="0" style="stop-color:#ece6e8;stop-opacity:1"/><stop offset="0.01" style="stop-color:#ece6e8;stop-opacity:1"/><stop offset="1" style="stop-color:#a69da0;stop-opacity:1"/></linearGradient><linearGradient id="_Linear22" x1="0" y1="0" x2="1" y2="0" gradientUnits="userSpaceOnUse" gradientTransform="matrix(-1.99882e-14,124.295,-124.295,-1.99882e-14,156.7,62.0107)"><stop offset="0" style="stop-color:#ffecb3;stop-opacity:1"/><stop offset="1" style="stop-color:#ffc107;stop-opacity:1"/></linearGradient><linearGradient id="_Linear23" x1="0" y1="0" x2="1" y2="0" gradientUnits="userSpaceOnUse" gradientTransform="matrix(-2.36271e-14,146.923,-146.923,-2.36271e-14,136.772,62.0107)"><stop offset="0" style="stop-color:#ffecb3;stop-opacity:1"/><stop offset="1" style="stop-color:#ffc107;stop-opacity:1"/></linearGradient><linearGradient id="_Linear24" x1="0" y1="0" x2="1" y2="0" gradientUnits="userSpaceOnUse" gradientTransform="matrix(5.65997e-15,92.4343,-92.4343,5.65997e-15,174.769,61.9177)"><stop offset="0" style="stop-color:#ffecb3;stop-opacity:1"/><stop offset="1" style="stop-color:#ffc107;stop-opacity:1"/></linearGradient><linearGradient id="_Linear25" x1="0" y1="0" x2="1" y2="0" gradientUnits="userSpaceOnUse" gradientTransform="matrix(3.54634e-15,57.9162,-57.9162,3.54634e-15,145.172,62.0107)"><stop offset="0" style="stop-color:#ffecb3;stop-opacity:1"/><stop offset="1" style="stop-color:#ffc107;stop-opacity:1"/></linearGradient><linearGradient id="_Linear26" x1="0" y1="0" x2="1" y2="0" gradientUnits="userSpaceOnUse" gradientTransform="matrix(-1.52658e-14,94.9291,-94.9291,-1.52658e-14,125.493,62.0107)"><stop offset="0" style="stop-color:#ffecb3;stop-opacity:1"/><stop offset="1" style="stop-color:#ffc107;stop-opacity:1"/></linearGradient><linearGradient id="_Linear27" x1="0" y1="0" x2="1" y2="0" gradientUnits="userSpaceOnUse" gradientTransform="matrix(5.87276e-15,95.9095,-95.9095,5.87276e-15,171.858,61.7497)"><stop offset="0" style="stop-color:#ffecb3;stop-opacity:1"/><stop offset="1" style="stop-color:#ffc107;stop-opacity:1"/></linearGradient><linearGradient id="_Linear28" x1="0" y1="0" x2="1" y2="0" gradientUnits="userSpaceOnUse" gradientTransform="matrix(8.19844e-15,133.891,-133.891,8.19844e-15,176.657,62.0107)"><stop offset="0" style="stop-color:#ffecb3;stop-opacity:1"/><stop offset="1" style="stop-color:#ffc107;stop-opacity:1"/></linearGradient><linearGradient id="_Linear29" x1="0" y1="0" x2="1" y2="0" gradientUnits="userSpaceOnUse" gradientTransform="matrix(1.10215e-14,179.995,-179.995,1.10215e-14,134.132,62.0107)"><stop offset="0" style="stop-color:#ffecb3;stop-opacity:1"/><stop offset="1" style="stop-color:#ffc107;stop-opacity:1"/></linearGradient><linearGradient id="_Linear30" x1="0" y1="0" x2="1" y2="0" gradientUnits="userSpaceOnUse" gradientTransform="matrix(4.92365e-15,80.4094,-80.4094,4.92365e-15,173.718,62.0107)"><stop offset="0" style="stop-color:#ffecb3;stop-opacity:1"/><stop offset="1" style="stop-color:#ffc107;stop-opacity:1"/></linearGradient><linearGradient id="_Linear31" x1="0" y1="0" x2="1" y2="0" gradientUnits="userSpaceOnUse" gradientTransform="matrix(9.9099e-15,161.841,-161.841,9.9099e-15,134.539,62.0107)"><stop offset="0" style="stop-color:#ffecb3;stop-opacity:1"/><stop offset="1" style="stop-color:#ffc107;stop-opacity:1"/></linearGradient><linearGradient id="_Linear32" x1="0" y1="0" x2="1" y2="0" gradientUnits="userSpaceOnUse" gradientTransform="matrix(1.01993e-14,166.568,-166.568,1.01993e-14,128.463,61.6322)"><stop offset="0" style="stop-color:#ffecb3;stop-opacity:1"/><stop offset="1" style="stop-color:#ffc107;stop-opacity:1"/></linearGradient><linearGradient id="_Linear33" x1="0" y1="0" x2="1" y2="0" gradientUnits="userSpaceOnUse" gradientTransform="matrix(5.56414e-15,90.8693,-90.8693,5.56414e-15,170.844,62.0107)"><stop offset="0" style="stop-color:#ffecb3;stop-opacity:1"/><stop offset="1" style="stop-color:#ffc107;stop-opacity:1"/></linearGradient><linearGradient id="_Linear34" x1="0" y1="0" x2="1" y2="0" gradientUnits="userSpaceOnUse" gradientTransform="matrix(8.29688e-15,135.498,-135.498,8.29688e-15,183.092,61.9817)"><stop offset="0" style="stop-color:#ffecb3;stop-opacity:1"/><stop offset="1" style="stop-color:#ffc107;stop-opacity:1"/></linearGradient><linearGradient id="_Linear35" x1="0" y1="0" x2="1" y2="0" gradientUnits="userSpaceOnUse" gradientTransform="matrix(5.55451e-15,90.712,-90.712,5.55451e-15,172.594,62.0107)"><stop offset="0" style="stop-color:#ffecb3;stop-opacity:1"/><stop offset="1" style="stop-color:#ffc107;stop-opacity:1"/></linearGradient><linearGradient id="_Linear36" x1="0" y1="0" x2="1" y2="0" gradientUnits="userSpaceOnUse" gradientTransform="matrix(5.79682e-15,94.6693,-94.6693,5.79682e-15,173.843,62.0107)"><stop offset="0" style="stop-color:#ffecb3;stop-opacity:1"/><stop offset="1" style="stop-color:#ffc107;stop-opacity:1"/></linearGradient><linearGradient id="_Linear37" x1="0" y1="0" x2="1" y2="0" gradientUnits="userSpaceOnUse" gradientTransform="matrix(1.06688e-14,174.235,-174.235,1.06688e-14,172.801,220.677)"><stop offset="0" style="stop-color:#ccc2a9;stop-opacity:1"/><stop offset="0.02" style="stop-color:#ccc2a9;stop-opacity:1"/><stop offset="1" style="stop-color:#fff2d4;stop-opacity:1"/></linearGradient><linearGradient id="_Linear38" x1="0" y1="0" x2="1" y2="0" gradientUnits="userSpaceOnUse" gradientTransform="matrix(-1.46735e-14,91.246,-91.246,-1.46735e-14,149.557,217.791)"><stop offset="0" style="stop-color:#ccc2a9;stop-opacity:1"/><stop offset="0.02" style="stop-color:#ccc2a9;stop-opacity:1"/><stop offset="1" style="stop-color:#fff2d4;stop-opacity:1"/></linearGradient><linearGradient id="_Linear40" x1="0" y1="0" x2="1" y2="0" gradientUnits="userSpaceOnUse" gradientTransform="matrix(-1.35155e-14,84.0453,-84.0453,-1.35155e-14,160.317,202.869)"><stop offset="0" style="stop-color:#3949ab;stop-opacity:1"/><stop offset="1" style="stop-color:#1a237e;stop-opacity:1"/></linearGradient><linearGradient id="_Linear41" x1="0" y1="0" x2="1" y2="0" gradientUnits="userSpaceOnUse" gradientTransform="matrix(5.00815e-15,81.7892,-81.7892,5.00815e-15,184.647,145.616)"><stop offset="0" style="stop-color:#3949ab;stop-opacity:1"/><stop offset="1" style="stop-color:#1a237e;stop-opacity:1"/></linearGradient><linearGradient id="_Linear42" x1="0" y1="0" x2="1" y2="0" gradientUnits="userSpaceOnUse" gradientTransform="matrix(5.04554e-15,82.4,-82.4,5.04554e-15,176.529,145.64)"><stop offset="0" style="stop-color:#3949ab;stop-opacity:1"/><stop offset="1" style="stop-color:#1a237e;stop-opacity:1"/></linearGradient><linearGradient id="_Linear43" x1="0" y1="0" x2="1" y2="0" gradientUnits="userSpaceOnUse" gradientTransform="matrix(-1.3934e-14,86.6475,-86.6475,-1.3934e-14,153.877,142.355)"><stop offset="0" style="stop-color:#3949ab;stop-opacity:1"/><stop offset="1" style="stop-color:#1a237e;stop-opacity:1"/></linearGradient><linearGradient id="_Linear44" x1="0" y1="0" x2="1" y2="0" gradientUnits="userSpaceOnUse" gradientTransform="matrix(-1.12521e-14,69.9707,-69.9707,-1.12521e-14,135.081,147.195)"><stop offset="0" style="stop-color:#3949ab;stop-opacity:1"/><stop offset="1" style="stop-color:#1a237e;stop-opacity:1"/></linearGradient><linearGradient id="_Linear45" x1="0" y1="0" x2="1" y2="0" gradientUnits="userSpaceOnUse" gradientTransform="matrix(-3.31903,-3.59355,3.59355,-3.31903,146.902,219.061)"><stop offset="0" style="stop-color:#212121;stop-opacity:1"/><stop offset="0.01" style="stop-color:#212121;stop-opacity:1"/><stop offset="0.5" style="stop-color:#616161;stop-opacity:1"/><stop offset="1" style="stop-color:#212121;stop-opacity:1"/></linearGradient><linearGradient id="_Linear46" x1="0" y1="0" x2="1" y2="0" gradientUnits="userSpaceOnUse" gradientTransform="matrix(-9.73346,-12.1807,12.1807,-9.73346,157.407,216.919)"><stop offset="0" style="stop-color:#212121;stop-opacity:1"/><stop offset="0.01" style="stop-color:#212121;stop-opacity:1"/><stop offset="0.5" style="stop-color:#616161;stop-opacity:1"/><stop offset="1" style="stop-color:#212121;stop-opacity:1"/></linearGradient><linearGradient id="_Linear47" x1="0" y1="0" x2="1" y2="0" gradientUnits="userSpaceOnUse" gradientTransform="matrix(4.48609,4.46096,-4.46096,4.48609,185.187,181.481)"><stop offset="0" style="stop-color:#e0e0e0;stop-opacity:1"/><stop offset="0.49" style="stop-color:#fafafa;stop-opacity:1"/><stop offset="1" style="stop-color:#e0e0e0;stop-opacity:1"/></linearGradient><linearGradient id="_Linear48" x1="0" y1="0" x2="1" y2="0" gradientUnits="userSpaceOnUse" gradientTransform="matrix(3.12291e-15,51.0011,-51.0011,3.12291e-15,152.852,62.0107)"><stop offset="0" style="stop-color:#ffecb3;stop-opacity:1"/><stop offset="1" style="stop-color:#ffc107;stop-opacity:1"/></linearGradient><linearGradient id="_Linear49" x1="0" y1="0" x2="1" y2="0" gradientUnits="userSpaceOnUse" gradientTransform="matrix(-1.4838e-14,92.2693,-92.2693,-1.4838e-14,144.128,62.0107)"><stop offset="0" style="stop-color:#ffecb3;stop-opacity:1"/><stop offset="1" style="stop-color:#ffc107;stop-opacity:1"/></linearGradient><linearGradient id="_Linear50" x1="0" y1="0" x2="1" y2="0" gradientUnits="userSpaceOnUse" gradientTransform="matrix(-1.56395e-14,97.2533,-97.2533,-1.56395e-14,144.617,62.0107)"><stop offset="0" style="stop-color:#ffecb3;stop-opacity:1"/><stop offset="1" style="stop-color:#ffc107;stop-opacity:1"/></linearGradient><linearGradient id="_Linear51" x1="0" y1="0" x2="1" y2="0" gradientUnits="userSpaceOnUse" gradientTransform="matrix(4.38935e-15,71.6834,-71.6834,4.38935e-15,175.334,62.0107)"><stop offset="0" style="stop-color:#ffecb3;stop-opacity:1"/><stop offset="1" style="stop-color:#ffc107;stop-opacity:1"/></linearGradient><linearGradient id="_Linear52" x1="0" y1="0" x2="1" y2="0" gradientUnits="userSpaceOnUse" gradientTransform="matrix(3.92052e-15,64.027,-64.027,3.92052e-15,176.106,62.0107)"><stop offset="0" style="stop-color:#ffecb3;stop-opacity:1"/><stop offset="1" style="stop-color:#ffc107;stop-opacity:1"/></linearGradient><linearGradient id="_Linear53" x1="0" y1="0" x2="1" y2="0" gradientUnits="userSpaceOnUse" gradientTransform="matrix(3.82759e-15,62.5093,-62.5093,3.82759e-15,173.286,62.0107)"><stop offset="0" style="stop-color:#ffecb3;stop-opacity:1"/><stop offset="1" style="stop-color:#ffc107;stop-opacity:1"/></linearGradient><linearGradient id="_Linear54" x1="0" y1="0" x2="1" y2="0" gradientUnits="userSpaceOnUse" gradientTransform="matrix(5.45585e-15,89.1009,-89.1009,5.45585e-15,146.287,62.0107)"><stop offset="0" style="stop-color:#ffecb3;stop-opacity:1"/><stop offset="1" style="stop-color:#ffc107;stop-opacity:1"/></linearGradient><linearGradient id="_Linear55" x1="0" y1="0" x2="1" y2="0" gradientUnits="userSpaceOnUse" gradientTransform="matrix(2.61147e-15,42.6486,-42.6486,2.61147e-15,170.456,62.0107)"><stop offset="0" style="stop-color:#ffecb3;stop-opacity:1"/><stop offset="1" style="stop-color:#ffc107;stop-opacity:1"/></linearGradient><linearGradient id="_Linear56" x1="0" y1="0" x2="1" y2="0" gradientUnits="userSpaceOnUse" gradientTransform="matrix(3.82759e-15,62.5093,-62.5093,3.82759e-15,150.923,62.0107)"><stop offset="0" style="stop-color:#ffecb3;stop-opacity:1"/><stop offset="1" style="stop-color:#ffc107;stop-opacity:1"/></linearGradient><linearGradient id="_Linear57" x1="0" y1="0" x2="1" y2="0" gradientUnits="userSpaceOnUse" gradientTransform="matrix(3.15159e-15,51.4693,-51.4693,3.15159e-15,165.063,62.0107)"><stop offset="0" style="stop-color:#ffecb3;stop-opacity:1"/><stop offset="1" style="stop-color:#ffc107;stop-opacity:1"/></linearGradient><linearGradient id="_Linear58" x1="0" y1="0" x2="1" y2="0" gradientUnits="userSpaceOnUse" gradientTransform="matrix(3.15159e-15,51.4693,-51.4693,3.15159e-15,159.888,62.0107)"><stop offset="0" style="stop-color:#ffecb3;stop-opacity:1"/><stop offset="1" style="stop-color:#ffc107;stop-opacity:1"/></linearGradient><linearGradient id="_Linear59" x1="0" y1="0" x2="1" y2="0" gradientUnits="userSpaceOnUse" gradientTransform="matrix(2.93915e-15,48,-48,2.93915e-15,356,377)"><stop offset="0" style="stop-color:#616161;stop-opacity:1"/><stop offset="1" style="stop-color:#757575;stop-opacity:1"/></linearGradient><linearGradient id="_Linear60" x1="0" y1="0" x2="1" y2="0" gradientUnits="userSpaceOnUse" gradientTransform="matrix(-7.51865e-14,124.295,-124.295,-7.51865e-14,356.7,62.0107)"><stop offset="0" style="stop-color:#fafafa;stop-opacity:1"/><stop offset="0.02" style="stop-color:#fafafa;stop-opacity:1"/><stop offset="1" style="stop-color:#bdbdbd;stop-opacity:1"/></linearGradient><linearGradient id="_Linear61" x1="0" y1="0" x2="1" y2="0" gradientUnits="userSpaceOnUse" gradientTransform="matrix(8.99646e-15,146.923,-146.923,8.99646e-15,336.772,62.0107)"><stop offset="0" style="stop-color:#fafafa;stop-opacity:1"/><stop offset="0.02" style="stop-color:#fafafa;stop-opacity:1"/><stop offset="1" style="stop-color:#bdbdbd;stop-opacity:1"/></linearGradient><linearGradient id="_Linear62" x1="0" y1="0" x2="1" y2="0" gradientUnits="userSpaceOnUse" gradientTransform="matrix(5.65997e-15,92.4343,-92.4343,5.65997e-15,374.769,61.9177)"><stop offset="0" style="stop-color:#fafafa;stop-opacity:1"/><stop offset="0.02" style="stop-color:#fafafa;stop-opacity:1"/><stop offset="1" style="stop-color:#bdbdbd;stop-opacity:1"/></linearGradient><linearGradient id="_Linear63" x1="0" y1="0" x2="1" y2="0" gradientUnits="userSpaceOnUse" gradientTransform="matrix(3.54634e-15,57.9162,-57.9162,3.54634e-15,345.172,62.0107)"><stop offset="0" style="stop-color:#fafafa;stop-opacity:1"/><stop offset="0.02" style="stop-color:#fafafa;stop-opacity:1"/><stop offset="1" style="stop-color:#bdbdbd;stop-opacity:1"/></linearGradient><linearGradient id="_Linear64" x1="0" y1="0" x2="1" y2="0" gradientUnits="userSpaceOnUse" gradientTransform="matrix(5.81273e-15,94.9291,-94.9291,5.81273e-15,325.493,62.0107)"><stop offset="0" style="stop-color:#fafafa;stop-opacity:1"/><stop offset="0.02" style="stop-color:#fafafa;stop-opacity:1"/><stop offset="1" style="stop-color:#bdbdbd;stop-opacity:1"/></linearGradient><linearGradient id="_Linear65" x1="0" y1="0" x2="1" y2="0" gradientUnits="userSpaceOnUse" gradientTransform="matrix(5.87276e-15,95.9095,-95.9095,5.87276e-15,371.858,61.7497)"><stop offset="0" style="stop-color:#fafafa;stop-opacity:1"/><stop offset="0.02" style="stop-color:#fafafa;stop-opacity:1"/><stop offset="1" style="stop-color:#bdbdbd;stop-opacity:1"/></linearGradient><linearGradient id="_Linear66" x1="0" y1="0" x2="1" y2="0" gradientUnits="userSpaceOnUse" gradientTransform="matrix(8.19844e-15,133.891,-133.891,8.19844e-15,376.657,62.0107)"><stop offset="0" style="stop-color:#fafafa;stop-opacity:1"/><stop offset="0.02" style="stop-color:#fafafa;stop-opacity:1"/><stop offset="1" style="stop-color:#bdbdbd;stop-opacity:1"/></linearGradient><linearGradient id="_Linear67" x1="0" y1="0" x2="1" y2="0" gradientUnits="userSpaceOnUse" gradientTransform="matrix(1.10215e-14,179.995,-179.995,1.10215e-14,334.132,62.0107)"><stop offset="0" style="stop-color:#fafafa;stop-opacity:1"/><stop offset="0.02" style="stop-color:#fafafa;stop-opacity:1"/><stop offset="1" style="stop-color:#bdbdbd;stop-opacity:1"/></linearGradient><linearGradient id="_Linear68" x1="0" y1="0" x2="1" y2="0" gradientUnits="userSpaceOnUse" gradientTransform="matrix(-8.43487e-14,80.4094,-80.4094,-8.43487e-14,373.718,62.0107)"><stop offset="0" style="stop-color:#fafafa;stop-opacity:1"/><stop offset="0.02" style="stop-color:#fafafa;stop-opacity:1"/><stop offset="1" style="stop-color:#bdbdbd;stop-opacity:1"/></linearGradient><linearGradient id="_Linear69" x1="0" y1="0" x2="1" y2="0" gradientUnits="userSpaceOnUse" gradientTransform="matrix(9.9099e-15,161.841,-161.841,9.9099e-15,334.539,62.0107)"><stop offset="0" style="stop-color:#fafafa;stop-opacity:1"/><stop offset="0.02" style="stop-color:#fafafa;stop-opacity:1"/><stop offset="1" style="stop-color:#bdbdbd;stop-opacity:1"/></linearGradient><linearGradient id="_Linear70" x1="0" y1="0" x2="1" y2="0" gradientUnits="userSpaceOnUse" gradientTransform="matrix(1.01993e-14,166.568,-166.568,1.01993e-14,328.463,61.6322)"><stop offset="0" style="stop-color:#fafafa;stop-opacity:1"/><stop offset="0.02" style="stop-color:#fafafa;stop-opacity:1"/><stop offset="1" style="stop-color:#bdbdbd;stop-opacity:1"/></linearGradient><linearGradient id="_Linear71" x1="0" y1="0" x2="1" y2="0" gradientUnits="userSpaceOnUse" gradientTransform="matrix(5.56414e-15,90.8693,-90.8693,5.56414e-15,370.844,62.0107)"><stop offset="0" style="stop-color:#fafafa;stop-opacity:1"/><stop offset="0.02" style="stop-color:#fafafa;stop-opacity:1"/><stop offset="1" style="stop-color:#bdbdbd;stop-opacity:1"/></linearGradient><linearGradient id="_Linear72" x1="0" y1="0" x2="1" y2="0" gradientUnits="userSpaceOnUse" gradientTransform="matrix(8.29688e-15,135.498,-135.498,8.29688e-15,383.092,61.9817)"><stop offset="0" style="stop-color:#fafafa;stop-opacity:1"/><stop offset="0.02" style="stop-color:#fafafa;stop-opacity:1"/><stop offset="1" style="stop-color:#bdbdbd;stop-opacity:1"/></linearGradient><linearGradient id="_Linear73" x1="0" y1="0" x2="1" y2="0" gradientUnits="userSpaceOnUse" gradientTransform="matrix(5.55451e-15,90.712,-90.712,5.55451e-15,372.594,62.0107)"><stop offset="0" style="stop-color:#fafafa;stop-opacity:1"/><stop offset="0.02" style="stop-color:#fafafa;stop-opacity:1"/><stop offset="1" style="stop-color:#bdbdbd;stop-opacity:1"/></linearGradient><linearGradient id="_Linear74" x1="0" y1="0" x2="1" y2="0" gradientUnits="userSpaceOnUse" gradientTransform="matrix(5.79682e-15,94.6693,-94.6693,5.79682e-15,373.843,62.0107)"><stop offset="0" style="stop-color:#fafafa;stop-opacity:1"/><stop offset="0.02" style="stop-color:#fafafa;stop-opacity:1"/><stop offset="1" style="stop-color:#bdbdbd;stop-opacity:1"/></linearGradient><linearGradient id="_Linear75" x1="0" y1="0" x2="1" y2="0" gradientUnits="userSpaceOnUse" gradientTransform="matrix(1.06688e-14,174.235,-174.235,1.06688e-14,372.801,220.677)"><stop offset="0" style="stop-color:#ccc2a9;stop-opacity:1"/><stop offset="0.02" style="stop-color:#ccc2a9;stop-opacity:1"/><stop offset="1" style="stop-color:#fff2d4;stop-opacity:1"/></linearGradient><linearGradient id="_Linear76" x1="0" y1="0" x2="1" y2="0" gradientUnits="userSpaceOnUse" gradientTransform="matrix(5.58721e-15,91.246,-91.246,5.58721e-15,349.557,217.791)"><stop offset="0" style="stop-color:#ccc2a9;stop-opacity:1"/><stop offset="0.02" style="stop-color:#ccc2a9;stop-opacity:1"/><stop offset="1" style="stop-color:#fff2d4;stop-opacity:1"/></linearGradient><linearGradient id="_Linear78" x1="0" y1="0" x2="1" y2="0" gradientUnits="userSpaceOnUse" gradientTransform="matrix(3.01029e-15,49.1618,-49.1618,3.01029e-15,387.867,181.609)"><stop offset="0" style="stop-color:#e8eaf6;stop-opacity:1"/><stop offset="1" style="stop-color:#7986cb;stop-opacity:1"/></linearGradient><linearGradient id="_Linear79" x1="0" y1="0" x2="1" y2="0" gradientUnits="userSpaceOnUse" gradientTransform="matrix(1.26786e-14,207.058,-207.058,1.26786e-14,356.24,202.105)"><stop offset="0" style="stop-color:#e8eaf6;stop-opacity:1"/><stop offset="1" style="stop-color:#7986cb;stop-opacity:1"/></linearGradient><linearGradient id="_Linear80" x1="0" y1="0" x2="1" y2="0" gradientUnits="userSpaceOnUse" gradientTransform="matrix(4.64841e-15,75.9143,-75.9143,4.64841e-15,381.665,161.838)"><stop offset="0" style="stop-color:#e8eaf6;stop-opacity:1"/><stop offset="1" style="stop-color:#7986cb;stop-opacity:1"/></linearGradient><linearGradient id="_Linear81" x1="0" y1="0" x2="1" y2="0" gradientUnits="userSpaceOnUse" gradientTransform="matrix(4.66458e-15,76.1783,-76.1783,4.66458e-15,349.049,161.422)"><stop offset="0" style="stop-color:#e8eaf6;stop-opacity:1"/><stop offset="1" style="stop-color:#7986cb;stop-opacity:1"/></linearGradient><linearGradient id="_Linear82" x1="0" y1="0" x2="1" y2="0" gradientUnits="userSpaceOnUse" gradientTransform="matrix(2.3853e-15,38.9548,-38.9548,2.3853e-15,335.572,179.415)"><stop offset="0" style="stop-color:#e8eaf6;stop-opacity:1"/><stop offset="1" style="stop-color:#7986cb;stop-opacity:1"/></linearGradient><linearGradient id="_Linear83" x1="0" y1="0" x2="1" y2="0" gradientUnits="userSpaceOnUse" gradientTransform="matrix(3.12291e-15,51.0011,-51.0011,3.12291e-15,352.852,62.0107)"><stop offset="0" style="stop-color:#fafafa;stop-opacity:1"/><stop offset="0.02" style="stop-color:#fafafa;stop-opacity:1"/><stop offset="1" style="stop-color:#bdbdbd;stop-opacity:1"/></linearGradient><linearGradient id="_Linear84" x1="0" y1="0" x2="1" y2="0" gradientUnits="userSpaceOnUse" gradientTransform="matrix(5.64987e-15,92.2693,-92.2693,5.64987e-15,344.128,62.0107)"><stop offset="0" style="stop-color:#fafafa;stop-opacity:1"/><stop offset="0.02" style="stop-color:#fafafa;stop-opacity:1"/><stop offset="1" style="stop-color:#bdbdbd;stop-opacity:1"/></linearGradient><linearGradient id="_Linear85" x1="0" y1="0" x2="1" y2="0" gradientUnits="userSpaceOnUse" gradientTransform="matrix(5.95505e-15,97.2533,-97.2533,5.95505e-15,344.617,62.0107)"><stop offset="0" style="stop-color:#fafafa;stop-opacity:1"/><stop offset="0.02" style="stop-color:#fafafa;stop-opacity:1"/><stop offset="1" style="stop-color:#bdbdbd;stop-opacity:1"/></linearGradient><linearGradient id="_Linear86" x1="0" y1="0" x2="1" y2="0" gradientUnits="userSpaceOnUse" gradientTransform="matrix(4.38935e-15,71.6834,-71.6834,4.38935e-15,375.334,62.0107)"><stop offset="0" style="stop-color:#fafafa;stop-opacity:1"/><stop offset="0.02" style="stop-color:#fafafa;stop-opacity:1"/><stop offset="1" style="stop-color:#bdbdbd;stop-opacity:1"/></linearGradient><linearGradient id="_Linear87" x1="0" y1="0" x2="1" y2="0" gradientUnits="userSpaceOnUse" gradientTransform="matrix(3.92052e-15,64.027,-64.027,3.92052e-15,376.106,62.0107)"><stop offset="0" style="stop-color:#fafafa;stop-opacity:1"/><stop offset="0.02" style="stop-color:#fafafa;stop-opacity:1"/><stop offset="1" style="stop-color:#bdbdbd;stop-opacity:1"/></linearGradient><linearGradient id="_Linear88" x1="0" y1="0" x2="1" y2="0" gradientUnits="userSpaceOnUse" gradientTransform="matrix(3.82759e-15,62.5093,-62.5093,3.82759e-15,373.286,62.0107)"><stop offset="0" style="stop-color:#fafafa;stop-opacity:1"/><stop offset="0.02" style="stop-color:#fafafa;stop-opacity:1"/><stop offset="1" style="stop-color:#bdbdbd;stop-opacity:1"/></linearGradient><linearGradient id="_Linear89" x1="0" y1="0" x2="1" y2="0" gradientUnits="userSpaceOnUse" gradientTransform="matrix(5.45585e-15,89.1009,-89.1009,5.45585e-15,346.287,62.0107)"><stop offset="0" style="stop-color:#fafafa;stop-opacity:1"/><stop offset="0.03" style="stop-color:#fafafa;stop-opacity:1"/><stop offset="1" style="stop-color:#bdbdbd;stop-opacity:1"/></linearGradient><linearGradient id="_Linear90" x1="0" y1="0" x2="1" y2="0" gradientUnits="userSpaceOnUse" gradientTransform="matrix(2.61147e-15,42.6486,-42.6486,2.61147e-15,370.456,62.0107)"><stop offset="0" style="stop-color:#fafafa;stop-opacity:1"/><stop offset="0.02" style="stop-color:#fafafa;stop-opacity:1"/><stop offset="1" style="stop-color:#bdbdbd;stop-opacity:1"/></linearGradient><linearGradient id="_Linear91" x1="0" y1="0" x2="1" y2="0" gradientUnits="userSpaceOnUse" gradientTransform="matrix(3.82759e-15,62.5093,-62.5093,3.82759e-15,350.923,62.0107)"><stop offset="0" style="stop-color:#fafafa;stop-opacity:1"/><stop offset="0.02" style="stop-color:#fafafa;stop-opacity:1"/><stop offset="1" style="stop-color:#bdbdbd;stop-opacity:1"/></linearGradient><linearGradient id="_Linear92" x1="0" y1="0" x2="1" y2="0" gradientUnits="userSpaceOnUse" gradientTransform="matrix(3.15159e-15,51.4693,-51.4693,3.15159e-15,365.063,62.0107)"><stop offset="0" style="stop-color:#fafafa;stop-opacity:1"/><stop offset="0.02" style="stop-color:#fafafa;stop-opacity:1"/><stop offset="1" style="stop-color:#bdbdbd;stop-opacity:1"/></linearGradient><linearGradient id="_Linear93" x1="0" y1="0" x2="1" y2="0" gradientUnits="userSpaceOnUse" gradientTransform="matrix(3.15159e-15,51.4693,-51.4693,3.15159e-15,359.888,62.0107)"><stop offset="0" style="stop-color:#fafafa;stop-opacity:1"/><stop offset="0.02" style="stop-color:#fafafa;stop-opacity:1"/><stop offset="1" style="stop-color:#bdbdbd;stop-opacity:1"/></linearGradient></defs></svg>